<?xml version="1.0" encoding="UTF-8"?>
<svg id="_レイヤー_1" data-name="レイヤー_1" xmlns="http://www.w3.org/2000/svg" version="1.1" viewBox="0 0 276 288">
  <!-- Generator: Adobe Illustrator 29.4.0, SVG Export Plug-In . SVG Version: 2.1.0 Build 152)  -->
  <defs>
    <style>
      .st0 {
        fill: #231815;
      }
    </style>
  </defs>
  <g>
    <path class="st0" d="M61.76,142.05c0-14.21,7.89-18.07,15.78-18.07,7.89,0,15.79,3.86,15.79,18.07,0,14.21-7.9,18.07-15.79,18.07-7.89,0-15.78-3.86-15.78-18.07ZM77.55,153.14c6.28,0,7.34-4.74,7.34-11.06s-1.05-11.05-7.34-11.08c-6.28,0-7.34,4.74-7.34,11.06s1.05,11.05,7.34,11.08Z"/>
    <path class="st0" d="M47.99,146.26c-1.05,2.11-4.21,5.96-10,5.96s-8.94-3.86-9.99-5.96c-1.58-3.15-1.59-7.37-1.59-11.57s.04-8.41,1.6-11.58c1.03-2.1,4.19-5.96,9.98-5.96s8.94,3.86,10,5.96c.02.04.04.09.07.13.17.35.59.5.95.33l6.38-3.19c.35-.17.49-.59.32-.94-2.92-6-9.77-10.19-17.71-10.19-11.58,0-17.36,8.07-18.94,13.86-1.01,3.7-1.05,7.37-1.05,11.58s.05,7.88,1.05,11.58c1.58,5.79,7.36,13.86,18.94,13.86,9.3,0,14.88-5.21,17.52-10.26.18-.35.04-.78-.31-.95l-6.2-3.1c-.35-.18-.78-.03-.95.33-.02.04-.04.09-.07.13Z"/>
    <path class="st0" d="M162.72,151.46c-2.22-1.65-2.87-4.37-3.03-7.3h22.4c.39,0,.7-.32.7-.7,0-4.8-.1-7.91-2.1-11.92-2.63-5.26-7.89-7.54-13.68-7.54-7.89,0-15.78,3.86-15.78,18.07,0,7.37,1.58,12.63,7.87,16.08,6.61,3.63,16.61,2.32,22.43-3.35.3-.29.28-.78-.04-1.05l-4.3-3.56c-.28-.23-.69-.21-.95.05-3.41,3.43-9.83,3.95-13.51,1.22ZM167,131c4.8,0,6.54,2.75,7.1,6.84h-14.22c.57-4.09,2.34-6.84,7.12-6.84Z"/>
    <path class="st0" d="M201.25,151.46c-2.22-1.65-2.87-4.37-3.03-7.3h22.4c.39,0,.7-.32.7-.7,0-4.8-.1-7.91-2.1-11.92-2.63-5.26-7.89-7.54-13.68-7.54-7.89,0-15.78,3.86-15.78,18.07,0,7.37,1.58,12.63,7.87,16.08,6.61,3.63,16.61,2.32,22.43-3.35.3-.29.28-.78-.04-1.05l-4.3-3.56c-.28-.23-.69-.21-.95.05-3.41,3.43-9.83,3.95-13.51,1.22ZM205.54,131c4.8,0,6.54,2.75,7.1,6.84h-14.22c.57-4.09,2.34-6.84,7.12-6.84Z"/>
    <path class="st0" d="M119.64,116.1v-5.44c0-.39-.32-.7-.71-.7-11.04.09-15.08,2.35-15.08,14.2v.53h-4.56c-.39,0-.7.31-.7.7v5.61c0,.39.31.7.7.7h4.56v27.01c0,.39.31.7.7.7h7.02c.39,0,.7-.31.7-.7v-27.01h6.66c.39,0,.7-.31.7-.7v-5.61c0-.39-.31-.7-.7-.7h-6.66v-2.63c0-4,2.38-5.15,6.68-5.25.38,0,.69-.32.69-.7Z"/>
    <path class="st0" d="M145.95,116.1v-5.44c0-.39-.32-.7-.71-.7-11.04.09-15.08,2.35-15.08,14.2v.53h-4.56c-.39,0-.7.31-.7.7v5.61c0,.39.31.7.7.7h4.56v27.01c0,.39.31.7.7.7h7.02c.39,0,.7-.31.7-.7v-27.01h6.66c.39,0,.7-.31.7-.7v-5.61c0-.39-.31-.7-.7-.7h-6.66v-2.63c0-4,2.38-5.15,6.68-5.25.38,0,.69-.32.69-.7Z"/>
    <g>
      <path class="st0" d="M117.45,56.74c-2.22-1.65-2.87-4.37-3.03-7.3h22.4c.39,0,.7-.32.7-.7,0-4.8-.1-7.91-2.1-11.92-2.63-5.26-7.89-7.54-13.68-7.54-7.89,0-15.78,3.86-15.78,18.07,0,7.37,1.58,12.63,7.87,16.08,6.61,3.63,16.61,2.32,22.43-3.35.3-.29.28-.78-.04-1.05l-4.3-3.56c-.28-.23-.69-.21-.95.05-3.41,3.43-9.83,3.95-13.51,1.22ZM121.73,36.29c4.8,0,6.54,2.75,7.1,6.84h-14.22c.57-4.09,2.34-6.84,7.12-6.84Z"/>
      <path class="st0" d="M49.12,15.94v19.03h-21.05V15.94c0-.39-.31-.7-.7-.7h-7.02c-.39,0-.7.31-.7.7v48.06c0,.39.31.7.7.7h7.02c.39,0,.7-.31.7-.7v-21.14h21.05v21.14c0,.39.31.7.7.7h7.02c.39,0,.7-.31.7-.7V15.94c0-.39-.31-.7-.7-.7h-7.02c-.39,0-.7.31-.7.7Z"/>
    </g>
    <path class="st0" d="M61.35,237.47c0-14.21,7.89-18.07,15.78-18.07,7.89,0,15.79,3.86,15.79,18.07,0,14.21-7.9,18.07-15.79,18.07-7.89,0-15.78-3.86-15.78-18.07ZM77.13,248.55c6.28,0,7.34-4.74,7.34-11.06s-1.05-11.05-7.34-11.08c-6.28,0-7.34,4.74-7.34,11.06s1.05,11.05,7.34,11.08Z"/>
    <path class="st0" d="M122.51,220.8v1.92c-1.79-2.02-4.58-3.35-8.95-3.35-5.79,0-11.58,4.41-13.15,11.78-.35,1.63-.53,4.74-.53,6.31s.15,4.69.53,6.31c1.58,6.84,6.84,11.78,13.15,11.78,4.37,0,7.16-1.33,8.95-3.35v1.92c0,.39.31.7.7.7h7.02c.39,0,.7-.31.7-.7v-33.33c0-.39-.31-.7-.7-.7h-7.02c-.39,0-.7.31-.7.7ZM115.41,248.52c-6.05,0-7.07-4.73-7.07-11.04s1.05-11.05,7.07-11.06c6.08,0,7.07,4.76,7.07,11.08s-1.03,11.02-7.08,11.02Z"/>
    <path class="st0" d="M56.97,253.79l-10.81-19.74c4.84-2.17,8.22-6.99,8.22-13.43,0-9.44-6.58-13.11-11.3-14.4-3.02-.82-6.01-.86-9.44-.86h-13.27c-.39,0-.7.31-.7.7v48.06c0,.39.31.7.7.7h7.02c.39,0,.7-.31.7-.7v-18.24h5.56c1.4,0,2.71-.04,3.99-.14l10.25,18.71c.12.22.36.36.62.36h7.87c.53,0,.87-.57.62-1.04ZM28.07,227.99v-14.73h6.73c2.68,0,5.35.02,7.37,1.02,1.34.66,3.79,2.67,3.79,6.35s-2.46,5.69-3.79,6.36c-2.01,1-4.69,1.01-7.37,1.01h-6.73Z"/>
    <path class="st0" d="M245.43,224.31v-3.51c0-.39-.31-.7-.7-.7h-7.02c-.39,0-.7.31-.7.7v33.33c0,.39.31.7.7.7h7.02c.39,0,.7-.31.7-.7v-14.56c0-11.1,5.4-11.56,10.88-11.58.39,0,.7-.32.7-.7v-7.19c0-.39-.32-.71-.72-.7-4.49.07-8.86.91-10.86,4.91Z"/>
    <path class="st0" d="M190.15,220.1h-6.66v-10.26c0-.42-.37-.75-.79-.7l-7.02.88c-.35.04-.61.34-.61.7v9.38h-4.56c-.39,0-.7.31-.7.7v5.61c0,.39.31.7.7.7h4.56v13.77c0,11.85,4.04,14.12,15.08,14.2.39,0,.71-.31.71-.7v-5.44c0-.38-.31-.69-.69-.7-4.76-.09-6.68-1.24-6.68-5.26v-15.87s6.66,0,6.66,0c.39,0,.7-.31.7-.7v-5.61c0-.39-.31-.7-.7-.7Z"/>
    <path class="st0" d="M208.92,246.87c-2.22-1.65-2.87-4.37-3.03-7.3h22.4c.39,0,.7-.32.7-.7,0-4.8-.1-7.91-2.1-11.92-2.63-5.26-7.89-7.54-13.68-7.54-7.89,0-15.78,3.86-15.78,18.07,0,7.37,1.58,12.63,7.87,16.08,6.61,3.63,16.61,2.32,22.43-3.35.3-.29.28-.78-.04-1.05l-4.3-3.56c-.28-.23-.69-.21-.95.05-3.41,3.43-9.83,3.95-13.51,1.22ZM213.2,226.42c4.8,0,6.54,2.75,7.1,6.84h-14.22c.57-4.09,2.34-6.84,7.12-6.84Z"/>
    <path class="st0" d="M157.21,228.71c-.31.14-.68.03-.87-.25-.81-1.21-1.9-2.04-4.22-2.04-3.16,0-4.74,1.57-4.74,3.69,0,2.62,3.16,3.67,5.26,4.22,8.89,2.29,12.1,4.72,12.1,11.03,0,3.68-3.16,10.52-13.15,10.52-5.48,0-10.01-2.83-12.38-6.64-.22-.35-.08-.81.29-.99l5.39-2.69c.3-.15.66-.06.87.2,1.42,1.86,3.41,2.76,5.84,2.76,3.68,0,5.26-1.73,5.26-3.68,0-2.63-3.65-3.81-5.79-4.38-5.26-1.41-11.58-3.51-11.58-10.35,0-5.82,4.74-11.05,12.63-11.05,4.48,0,8.81,2.42,10.92,6.25.2.36.04.81-.33.97l-5.5,2.44Z"/>
  </g>
  <path class="st0" d="M69.04,59.18c2.65,4.13,6.39,6.24,11.39,6.24,3.61,0,6.61-1,8.68-3.84v2.42c0,.39.31.7.7.7h7.02c.39,0,.7-.31.7-.7V30.67c0-.39-.31-.7-.7-.7h-7.02c-.39,0-.7.31-.7.7v17.72h0c0,5.26-1.05,10-6.88,10-4.7,0-6.8-3.68-6.8-7.89v-19.82c0-.39-.31-.7-.7-.7h-7.02c-.39,0-.7.31-.7.7v16.68c0,5.24.17,8.93,2.03,11.83Z"/>
</svg>